{
  "asset": {
    "generator": "Khronos glTF Blender I/O v3.2.43",
    "version": "2.0"
  },
  "scene": 0,
  "scenes": [
    {
      "name": "Scene",
      "nodes": [
        0
      ]
    }
  ],
  "nodes": [
    {
      "mesh": 0,
      "name": "sphere_gltf"
    }
  ],
  "materials": [
    {
      "doubleSided": true,
      "name": "park_dirt",
      "normalTexture": {
        "index": 0
      },
      "pbrMetallicRoughness": {
        "baseColorTexture": {
          "index": 1
        },
        "metallicFactor": 0,
        "metallicRoughnessTexture": {
          "index": 2
        }
      }
    }
  ],
  "meshes": [
    {
      "name": "Sphere.001",
      "primitives": [
        {
          "attributes": {
            "POSITION": 0,
            "NORMAL": 1,
            "TEXCOORD_0": 2
          },
          "indices": 3,
          "material": 0
        }
      ]
    }
  ],
  "textures": [
    {
      "sampler": 0,
      "source": 0
    },
    {
      "sampler": 0,
      "source": 1
    },
    {
      "sampler": 0,
      "source": 2
    }
  ],
  "images": [
    {
      "mimeType": "image/jpeg",
      "name": "park_dirt_nor_gl",
      "uri": "textures/park_dirt_nor_gl_4k.jpg"
    },
    {
      "mimeType": "image/jpeg",
      "name": "park_dirt_diff",
      "uri": "textures/park_dirt_diff_4k.jpg"
    },
    {
      "mimeType": "image/jpeg",
      "name": "park_dirt_rough",
      "uri": "textures/park_dirt_arm_4k.jpg"
    }
  ],
  "accessors": [
    {
      "bufferView": 0,
      "componentType": 5126,
      "count": 53937,
      "max": [
        1.5017893314361572,
        1.5035773515701294,
        1.5032308101654053
      ],
      "min": [
        -1.5017892122268677,
        -1.5060374736785889,
        -1.503232479095459
      ],
      "type": "VEC3"
    },
    {
      "bufferView": 1,
      "componentType": 5126,
      "count": 53937,
      "type": "VEC3"
    },
    {
      "bufferView": 2,
      "componentType": 5126,
      "count": 53937,
      "type": "VEC2"
    },
    {
      "bufferView": 3,
      "componentType": 5123,
      "count": 322170,
      "type": "SCALAR"
    }
  ],
  "bufferViews": [
    {
      "buffer": 0,
      "byteLength": 647244,
      "byteOffset": 0
    },
    {
      "buffer": 0,
      "byteLength": 647244,
      "byteOffset": 647244
    },
    {
      "buffer": 0,
      "byteLength": 431496,
      "byteOffset": 1294488
    },
    {
      "buffer": 0,
      "byteLength": 644340,
      "byteOffset": 1725984
    }
  ],
  "samplers": [
    {
      "magFilter": 9729,
      "minFilter": 9987
    }
  ],
  "buffers": [
    {
      "byteLength": 2370324,
      "uri": "park_dirt.bin"
    }
  ]
}